<?xml version="1.0" encoding="UTF-8" standalone="no"?>
<!-- Created with Inkscape (http://www.inkscape.org/) -->

<svg
   version="1.1"
   id="svg1"
   xml:space="preserve"
   width="420"
   height="154.73454"
   xmlns:inkscape="http://www.inkscape.org/namespaces/inkscape"
   xmlns:sodipodi="http://sodipodi.sourceforge.net/DTD/sodipodi-0.dtd"
   xmlns="http://www.w3.org/2000/svg"
   xmlns:svg="http://www.w3.org/2000/svg"><defs
     id="defs1" /><sodipodi:namedview
     id="namedview1"
     pagecolor="#505050"
     bordercolor="#eeeeee"
     borderopacity="1"
     inkscape:showpageshadow="0"
     inkscape:pageopacity="0"
     inkscape:pagecheckerboard="0"
     inkscape:deskcolor="#d1d1d1" /><inkscape:clipboard
     style="font-variation-settings:normal;opacity:1;vector-effect:none;fill:#ffffff;fill-opacity:1;stroke:none;stroke-width:0.99999999;stroke-linecap:butt;stroke-linejoin:miter;stroke-miterlimit:10;stroke-dasharray:none;stroke-dashoffset:0;stroke-opacity:1;-inkscape-stroke:none;stop-color:#000000;stop-opacity:1"
     min="249.10187,392.55699"
     max="669.10187,547.29153"
     geom-min="249.10187,392.55699"
     geom-max="669.10187,547.29153" /><g
     id="g1"
     transform="matrix(3.7795276,0,0,3.7795276,-249.10187,-392.557)"><g
       fill="#101820"
       fill-rule="none"
       stroke="none"
       stroke-width="1"
       stroke-linecap="butt"
       stroke-linejoin="miter"
       stroke-miterlimit="10"
       stroke-dasharray="none"
       stroke-dashoffset="0"
       font-family="none"
       font-weight="none"
       font-size="none"
       text-anchor="none"
       style="mix-blend-mode:normal;fill:#ffffff;fill-opacity:1"
       id="g16"
       transform="matrix(0.26458333,0,0,0.26458333,48.710289,62.157046)"><g
         data-paper-data="{&quot;isGlobalGroup&quot;:true,&quot;bounds&quot;:{&quot;x&quot;:65.00000000000001,&quot;y&quot;:157.63272626721175,&quot;width&quot;:420,&quot;height&quot;:154.7345474655765}}"
         id="g15"
         style="fill:#ffffff;fill-opacity:1"><g
           data-paper-data="{&quot;isSecondaryText&quot;:true}"
           fill-rule="nonzero"
           id="g9"
           style="fill:#ffffff;fill-opacity:1"><path
             d="m 273.11879,280.22551 h -3.98275 l -6.02681,18.08044 -6.02681,-18.08044 h -3.98275 v 21.07278 h 2.52873 v -18.08044 l 6.02681,18.08044 h 2.90804 l 6.02681,-18.08044 v 18.08044 h 2.52873 z"
             data-paper-data="{&quot;glyphName&quot;:&quot;M&quot;,&quot;glyphIndex&quot;:0,&quot;firstGlyphOfWord&quot;:true,&quot;word&quot;:1}"
             id="path1"
             style="fill:#ffffff;fill-opacity:1" /><path
             d="m 288.8917,280.22551 h -2.52873 v 21.07278 h 2.52873 z"
             data-paper-data="{&quot;glyphName&quot;:&quot;I&quot;,&quot;glyphIndex&quot;:1,&quot;word&quot;:1}"
             id="path2"
             style="fill:#ffffff;fill-opacity:1" /><path
             d="m 312.53847,285.8098 c 0,2.31801 -1.79119,3.68774 -4.31992,3.68774 h -3.7931 v -7.05938 h 4.4885 c 2.78161,0 3.62452,1.3908 3.62452,3.37164 z m 1.93869,7.83907 c -0.33716,-1.66475 -1.28544,-2.95019 -3.03448,-3.13984 2.19157,-0.63218 3.72988,-2.65517 3.72988,-5.09961 0,-2.8659 -2.00191,-5.1839 -6.21647,-5.1839 h -7.05938 v 21.07278 h 2.52873 v -9.58811 h 4.65708 c 1.58046,0 2.52873,0.94827 2.80268,2.36015 l 1.43295,7.22796 h 2.69732 z"
             data-paper-data="{&quot;glyphName&quot;:&quot;R&quot;,&quot;glyphIndex&quot;:2,&quot;word&quot;:1}"
             id="path3"
             style="fill:#ffffff;fill-opacity:1" /><path
             d="m 329.72674,280.22551 h -2.52873 v 21.07278 h 2.52873 z"
             data-paper-data="{&quot;glyphName&quot;:&quot;I&quot;,&quot;glyphIndex&quot;:3,&quot;word&quot;:1}"
             id="path4"
             style="fill:#ffffff;fill-opacity:1" /><path
             d="m 345.49173,293.71209 3.72988,-10.4521 3.72988,10.4521 z m 5.09961,-13.48658 h -2.73946 l -7.79693,21.07278 h 2.73946 l 1.91762,-5.37356 h 9.01915 l 1.91762,5.37356 h 2.73946 z m 2.02299,-4.10919 c 0,0.80077 -0.67433,1.47509 -1.47509,1.47509 -0.42146,0 -0.73755,-0.12644 -1.03257,-0.42146 l -0.33716,-0.33716 c -0.67433,-0.67433 -1.30651,-0.9272 -2.23371,-0.9272 -1.74904,0 -3.16092,1.41188 -3.16092,3.16092 h 1.68582 c 0,-0.80077 0.65326,-1.47509 1.47509,-1.47509 0.42146,0 0.73755,0.12644 1.03257,0.42146 l 0.33716,0.33716 c 0.54789,0.54789 1.34866,0.9272 2.23371,0.9272 1.74904,0 3.16092,-1.41188 3.16092,-3.16092 z"
             data-paper-data="{&quot;glyphName&quot;:&quot;Ã&quot;,&quot;glyphIndex&quot;:4,&quot;lastGlyphOfWord&quot;:true,&quot;word&quot;:1}"
             id="path5"
             style="fill:#ffffff;fill-opacity:1" /><path
             d="m 394.20855,285.8098 c 0,2.31801 -1.79119,3.68774 -4.31992,3.68774 h -3.7931 v -7.05938 h 4.4885 c 2.78161,0 3.62452,1.3908 3.62452,3.37164 z m 1.9387,7.83907 c -0.33716,-1.66475 -1.28544,-2.95019 -3.03448,-3.13984 2.19157,-0.63218 3.72988,-2.65517 3.72988,-5.09961 0,-2.8659 -2.00191,-5.1839 -6.21647,-5.1839 h -7.05938 v 21.07278 h 2.52873 v -9.58811 h 4.65708 c 1.58046,0 2.52873,0.94827 2.80268,2.36015 l 1.43295,7.22796 h 2.69732 z"
             data-paper-data="{&quot;glyphName&quot;:&quot;R&quot;,&quot;glyphIndex&quot;:5,&quot;firstGlyphOfWord&quot;:true,&quot;word&quot;:2}"
             id="path6"
             style="fill:#ffffff;fill-opacity:1" /><path
             d="m 424.11444,280.22551 h -2.52873 v 14.64558 c 0,3.05555 -2.10728,4.63601 -4.84674,4.63601 -2.73946,0 -4.84674,-1.58046 -4.84674,-4.63601 v -14.64558 h -2.52873 v 14.64558 c 0,4.74137 3.37164,6.84865 7.37547,6.84865 4.00383,0 7.37547,-2.10728 7.37547,-6.84865 z"
             data-paper-data="{&quot;glyphName&quot;:&quot;U&quot;,&quot;glyphIndex&quot;:6,&quot;word&quot;:2}"
             id="path7"
             style="fill:#ffffff;fill-opacity:1" /><path
             d="m 439.67381,280.22551 h -2.52873 v 21.07278 h 2.52873 z"
             data-paper-data="{&quot;glyphName&quot;:&quot;I&quot;,&quot;glyphIndex&quot;:7,&quot;word&quot;:2}"
             id="path8"
             style="fill:#ffffff;fill-opacity:1" /><path
             d="m 463.44022,299.08565 h -9.9042 l 9.69348,-16.64749 v -2.21264 h -12.22221 v 2.21264 h 9.48275 l -9.69348,16.64749 v 2.21264 h 12.64367 z"
             data-paper-data="{&quot;glyphName&quot;:&quot;Z&quot;,&quot;glyphIndex&quot;:8,&quot;lastGlyphOfWord&quot;:true,&quot;word&quot;:2}"
             id="path9"
             style="fill:#ffffff;fill-opacity:1" /></g><g
           data-paper-data="{&quot;isPrimaryText&quot;:true}"
           fill-rule="nonzero"
           id="g13"
           style="fill:#ffffff;fill-opacity:1"><path
             d="m 301.59494,258.69302 c 15.09029,0 27.34309,-12.2528 27.34309,-27.34309 v -35.72658 c 0,-15.09029 -12.2528,-27.34309 -27.34309,-27.34309 -16.1221,0 -32.37319,0 -48.49529,0 v 90.41276 c 16.1221,0 32.37319,0 48.49529,0 z m -24.89253,-66.81 h 24.89253 c 2.06363,0 3.74033,1.6767 3.74033,3.74033 v 35.72658 c 0,2.06363 -1.6767,3.74033 -3.74033,3.74033 h -24.89253 z"
             data-paper-data="{&quot;glyphName&quot;:&quot;D&quot;,&quot;glyphIndex&quot;:0,&quot;firstGlyphOfWord&quot;:true,&quot;word&quot;:1}"
             id="path10"
             style="fill:#ffffff;fill-opacity:1" /><path
             d="m 361.44019,182.72566 c -15.09029,0 -27.34309,12.2528 -27.34309,27.34309 0,16.1221 0,32.50216 0,48.62427 h 23.60276 c 0,-16.1221 0,-32.50216 0,-48.62427 0,-2.06363 1.6767,-3.74033 3.74033,-3.74033 h 14.70336 v -23.60276 z"
             data-paper-data="{&quot;glyphName&quot;:&quot;r&quot;,&quot;glyphIndex&quot;:1,&quot;word&quot;:1}"
             id="path11"
             style="fill:#ffffff;fill-opacity:1" /><path
             d="m 428.63712,258.69302 v -23.60276 h -21.28118 c -2.06363,0 -3.74033,-1.6767 -3.74033,-3.74033 v -21.28118 c 0,-2.06363 1.6767,-3.74033 3.74033,-3.74033 h 21.28118 c 2.06363,0 3.74033,1.6767 3.74033,3.74033 0,16.1221 0,32.50216 0,48.62427 h 23.60276 c 0,-16.1221 0,-32.50216 0,-48.62427 0,-15.09029 -12.2528,-27.34309 -27.34309,-27.34309 h -21.28118 c -15.09029,0 -27.34309,12.2528 -27.34309,27.34309 v 21.28118 c 0,15.09029 12.2528,27.34309 27.34309,27.34309 z"
             data-paper-data="{&quot;glyphName&quot;:&quot;a&quot;,&quot;glyphIndex&quot;:2,&quot;word&quot;:1}"
             id="path12"
             style="fill:#ffffff;fill-opacity:1" /><path
             d="M 461.01031,258.822 H 485 v -19.4755 h -23.98969 z"
             data-paper-data="{&quot;glyphName&quot;:&quot;.&quot;,&quot;glyphIndex&quot;:3,&quot;lastGlyphOfWord&quot;:true,&quot;word&quot;:1}"
             id="path13"
             style="fill:#ffffff;fill-opacity:1" /></g><g
           data-paper-data="{&quot;fillRule&quot;:&quot;evenodd&quot;,&quot;fillRuleOriginal&quot;:&quot;evenodd&quot;,&quot;isIcon&quot;:true,&quot;iconStyle&quot;:&quot;standalone&quot;,&quot;selectedEffects&quot;:{&quot;container&quot;:&quot;&quot;,&quot;transformation&quot;:&quot;&quot;,&quot;pattern&quot;:&quot;&quot;},&quot;bounds&quot;:{&quot;x&quot;:65.00000000000001,&quot;y&quot;:157.63272626721175,&quot;width&quot;:151.15026963277086,&quot;height&quot;:154.7345474655765},&quot;iconType&quot;:&quot;icon&quot;,&quot;combineTerms&quot;:&quot;skin&quot;,&quot;source&quot;:&quot;noun&quot;,&quot;rawIconId&quot;:&quot;2456620&quot;,&quot;suitableAsStandaloneIcon&quot;:true}"
           fill-rule="evenodd"
           id="g14"
           style="fill:#ffffff;fill-opacity:1"><path
             d="m 216.15027,238.58378 c 0,-8.95826 -2.1174,-15.1476 -6.35222,-19.05666 -1.14014,-0.97726 -2.60604,-2.1174 -4.72344,-2.76891 -12.67691,-59.21216 -55.07489,-59.14007 -63.95905,-59.12495 -0.13356,2.2e-4 -0.25947,4.4e-4 -0.37755,4.4e-4 -0.1158,0 -0.23943,-2.1e-4 -0.37088,-4.4e-4 -8.73822,-0.0152 -51.45184,-0.0892 -64.1286,58.96208 -2.1174,0.81438 -3.74618,1.79165 -4.88632,2.93179 -4.23481,3.90906 -6.35222,10.0984 -6.35222,19.05666 0,7.16661 1.62877,12.37869 5.0492,15.79911 -5.29544,56.00329 16.28514,53.98606 43.71484,51.42204 0.41176,-0.0384 0.82497,-0.077 1.23933,-0.11564 7.81812,4.39769 16.6135,6.67797 25.57176,6.67797 9.12114,0 17.75364,-2.44316 25.57176,-6.67797 0.47544,0.0443 0.94941,0.0886 1.42159,0.13275 27.35364,2.56108 49.13654,4.60047 43.53258,-51.43914 3.25755,-3.5833 5.0492,-8.79538 5.0492,-15.79911 z m -18.24228,9.93552 c -3.42042,0.32575 -6.18934,3.09467 -6.35222,6.35222 -1.62877,14.33322 -10.58703,27.36341 -26.7119,38.60195 -14.17033,10.0984 -34.20427,10.0984 -48.3746,0 -16.12486,-11.40142 -25.08313,-24.43162 -26.54902,-38.60195 -0.32575,-3.42042 -3.09467,-6.18934 -6.35222,-6.35222 -4.23481,-0.48863 -7.16661,-0.65151 -7.16661,-9.93552 0,-7.32948 1.62877,-9.93552 2.76891,-10.74991 0.16287,-0.16287 0.48863,-0.48863 1.14014,-0.65151 0.48863,2.1174 2.1174,3.90906 4.39769,4.23481 3.09467,0.48863 5.86359,-1.46589 6.5151,-4.56057 0.97726,-5.37495 2.44316,-10.0984 4.07193,-14.49609 9.28401,0.97726 23.45435,-2.28028 38.11332,-9.12114 7.49236,-3.5833 14.00746,-7.65524 19.38241,-11.72718 2.28028,2.28028 4.56057,4.56057 7.16661,6.67797 9.44689,7.65524 19.05666,12.54156 26.38615,13.84458 1.79165,4.56057 3.25755,9.44689 4.23481,14.98473 0.48863,2.76891 2.76891,4.56057 5.53783,4.56057 0.32575,0 0.65151,0 0.97726,-0.16287 2.28028,-0.32575 4.07193,-2.1174 4.39769,-4.23481 0.65151,0.16287 0.97726,0.48863 1.14014,0.65151 0.97726,0.97726 2.76891,3.5833 2.76891,10.74991 -0.48863,9.28401 -3.42042,9.60977 -7.49236,9.93552 z m -89.25684,-5.37495 c 0,0.11206 -0.005,0.22379 -0.0165,0.3352 -0.011,0.11152 -0.0274,0.22222 -0.0493,0.33211 -0.0218,0.10988 -0.049,0.21842 -0.0814,0.32559 -0.0326,0.10718 -0.0703,0.2125 -0.1132,0.31598 -0.0428,0.10348 -0.0906,0.20463 -0.14349,0.30344 -0.0528,0.0988 -0.11027,0.1948 -0.17249,0.28797 -0.0622,0.0932 -0.12889,0.18302 -0.20001,0.26956 -0.071,0.0866 -0.14615,0.16956 -0.22543,0.24871 -0.0792,0.0793 -0.16206,0.15441 -0.24871,0.22543 -0.0865,0.0711 -0.1764,0.13779 -0.26956,0.20001 -0.0932,0.0622 -0.18916,0.11972 -0.28797,0.17249 -0.0988,0.0529 -0.19996,0.10071 -0.30344,0.14349 -0.10348,0.0429 -0.20881,0.0806 -0.31598,0.1132 -0.10718,0.0325 -0.21571,0.0596 -0.32559,0.0814 -0.10988,0.0219 -0.22059,0.0384 -0.33211,0.0493 -0.11141,0.011 -0.22314,0.0165 -0.3352,0.0165 -0.11206,0 -0.22379,-0.005 -0.3352,-0.0165 -0.11152,-0.011 -0.22222,-0.0274 -0.33211,-0.0493 -0.10988,-0.0218 -0.21842,-0.049 -0.32559,-0.0814 -0.10718,-0.0326 -0.2125,-0.0703 -0.31598,-0.1132 -0.10348,-0.0428 -0.20463,-0.0906 -0.30344,-0.14349 -0.0988,-0.0528 -0.1948,-0.11027 -0.28797,-0.17249 -0.0932,-0.0622 -0.18302,-0.12889 -0.26956,-0.20001 -0.0866,-0.071 -0.16956,-0.14615 -0.24871,-0.22543 -0.0793,-0.0792 -0.15441,-0.16206 -0.22543,-0.24871 -0.0711,-0.0865 -0.13779,-0.1764 -0.20001,-0.26956 -0.0622,-0.0932 -0.11972,-0.18916 -0.17249,-0.28797 -0.0529,-0.0988 -0.10071,-0.19996 -0.14349,-0.30344 -0.0429,-0.10348 -0.0806,-0.20881 -0.1132,-0.31598 -0.0325,-0.10718 -0.0597,-0.21571 -0.0816,-0.32559 -0.0218,-0.10988 -0.0382,-0.22059 -0.0492,-0.33211 -0.011,-0.11141 -0.0164,-0.22314 -0.0164,-0.3352 0,-0.11206 0.005,-0.22379 0.0164,-0.3352 0.011,-0.11152 0.0274,-0.22222 0.0492,-0.33211 0.0219,-0.10988 0.0491,-0.21842 0.0816,-0.32559 0.0326,-0.10718 0.0703,-0.2125 0.1132,-0.31598 0.0428,-0.10348 0.0906,-0.20463 0.14349,-0.30344 0.0528,-0.0988 0.11027,-0.1948 0.17249,-0.28797 0.0622,-0.0932 0.12889,-0.18302 0.20001,-0.26956 0.071,-0.0867 0.14615,-0.16956 0.22543,-0.24871 0.0792,-0.0793 0.16206,-0.15441 0.24871,-0.22543 0.0865,-0.0711 0.1764,-0.13779 0.26956,-0.20001 0.0932,-0.0622 0.18916,-0.11972 0.28797,-0.17249 0.0988,-0.0529 0.19996,-0.10071 0.30344,-0.14349 0.10348,-0.0429 0.20881,-0.0806 0.31598,-0.1132 0.10718,-0.0325 0.21571,-0.0596 0.32559,-0.0814 0.10988,-0.0219 0.22059,-0.0384 0.33211,-0.0494 0.11141,-0.011 0.22314,-0.0164 0.3352,-0.0164 0.11206,0 0.22379,0.005 0.3352,0.0164 0.11152,0.011 0.22222,0.0274 0.33211,0.0494 0.10988,0.0218 0.21842,0.049 0.32559,0.0814 0.10718,0.0326 0.2125,0.0703 0.31598,0.1132 0.10348,0.0428 0.20463,0.0906 0.30344,0.14349 0.0988,0.0528 0.1948,0.11027 0.28797,0.17249 0.0932,0.0622 0.18302,0.12889 0.26956,0.20001 0.0866,0.071 0.16956,0.14615 0.24871,0.22543 0.0793,0.0792 0.15441,0.16206 0.22543,0.24871 0.0711,0.0865 0.13779,0.1764 0.20001,0.26956 0.0622,0.0932 0.11972,0.18916 0.17249,0.28797 0.0529,0.0988 0.10071,0.19996 0.14349,0.30344 0.0429,0.10348 0.0806,0.20881 0.1132,0.31598 0.0325,0.10718 0.0596,0.21571 0.0814,0.32559 0.0219,0.10988 0.0384,0.22059 0.0493,0.33211 0.011,0.11141 0.0165,0.22314 0.0165,0.3352 z m 70.68882,0 c 0,0.11206 -0.005,0.22379 -0.0164,0.3352 -0.011,0.11152 -0.0274,0.22222 -0.0494,0.33211 -0.0218,0.10988 -0.049,0.21842 -0.0814,0.32559 -0.0326,0.10718 -0.0703,0.2125 -0.1132,0.31598 -0.0428,0.10348 -0.0906,0.20463 -0.14349,0.30344 -0.0528,0.0988 -0.11027,0.1948 -0.17249,0.28797 -0.0622,0.0932 -0.12889,0.18302 -0.20001,0.26956 -0.071,0.0866 -0.14615,0.16956 -0.22543,0.24871 -0.0792,0.0793 -0.16206,0.15441 -0.24871,0.22543 -0.0865,0.0711 -0.1764,0.13779 -0.26956,0.20001 -0.0932,0.0622 -0.18916,0.11972 -0.28797,0.17249 -0.0988,0.0529 -0.19996,0.10071 -0.30344,0.14349 -0.10348,0.0429 -0.20881,0.0806 -0.31598,0.1132 -0.10718,0.0325 -0.21571,0.0596 -0.32559,0.0814 -0.10988,0.0219 -0.22059,0.0384 -0.33211,0.0493 -0.11141,0.011 -0.22314,0.0165 -0.3352,0.0165 -0.11206,0 -0.22379,-0.005 -0.3352,-0.0165 -0.11152,-0.011 -0.22222,-0.0274 -0.33211,-0.0493 -0.10988,-0.0218 -0.21842,-0.049 -0.32559,-0.0814 -0.10718,-0.0326 -0.2125,-0.0703 -0.31598,-0.1132 -0.10359,-0.0428 -0.20474,-0.0906 -0.30344,-0.14349 -0.0988,-0.0528 -0.1948,-0.11027 -0.28797,-0.17249 -0.0932,-0.0622 -0.18302,-0.12889 -0.26956,-0.20001 -0.0866,-0.071 -0.16956,-0.14615 -0.24871,-0.22543 -0.0793,-0.0792 -0.15441,-0.16206 -0.22543,-0.24871 -0.0711,-0.0865 -0.13779,-0.1764 -0.20001,-0.26956 -0.0622,-0.0932 -0.11972,-0.18916 -0.17249,-0.28797 -0.0529,-0.0988 -0.10076,-0.19996 -0.14366,-0.30344 -0.0428,-0.10348 -0.0805,-0.20881 -0.11303,-0.31598 -0.0325,-0.10718 -0.0596,-0.21571 -0.0814,-0.32559 -0.0219,-0.10988 -0.0384,-0.22059 -0.0494,-0.33211 -0.011,-0.11141 -0.0164,-0.22314 -0.0164,-0.3352 0,-0.11206 0.005,-0.22379 0.0164,-0.3352 0.011,-0.11152 0.0274,-0.22222 0.0494,-0.33211 0.0218,-0.10988 0.049,-0.21842 0.0814,-0.32559 0.0326,-0.10718 0.0703,-0.2125 0.11303,-0.31598 0.0429,-0.10348 0.0908,-0.20463 0.14366,-0.30344 0.0528,-0.0988 0.11027,-0.1948 0.17249,-0.28797 0.0622,-0.0932 0.12889,-0.18302 0.20001,-0.26956 0.071,-0.0867 0.14615,-0.16956 0.22543,-0.24871 0.0792,-0.0793 0.16206,-0.15441 0.24871,-0.22543 0.0865,-0.0711 0.1764,-0.13779 0.26956,-0.20001 0.0932,-0.0622 0.18916,-0.11972 0.28797,-0.17249 0.0987,-0.0529 0.19985,-0.10071 0.30344,-0.14349 0.10348,-0.0429 0.20881,-0.0806 0.31598,-0.1132 0.10718,-0.0325 0.21571,-0.0596 0.32559,-0.0814 0.10988,-0.0219 0.22059,-0.0384 0.33211,-0.0494 0.11141,-0.011 0.22314,-0.0164 0.3352,-0.0164 0.11206,0 0.22379,0.005 0.3352,0.0164 0.11152,0.011 0.22222,0.0274 0.33211,0.0494 0.10988,0.0218 0.21842,0.049 0.32559,0.0814 0.10718,0.0326 0.2125,0.0703 0.31598,0.1132 0.10348,0.0428 0.20463,0.0906 0.30344,0.14349 0.0988,0.0528 0.1948,0.11027 0.28797,0.17249 0.0932,0.0622 0.18302,0.12889 0.26956,0.20001 0.0866,0.071 0.16956,0.14615 0.24871,0.22543 0.0793,0.0792 0.15441,0.16206 0.22543,0.24871 0.0711,0.0865 0.13779,0.1764 0.20001,0.26956 0.0622,0.0932 0.11972,0.18916 0.17249,0.28797 0.0529,0.0988 0.10071,0.19996 0.14349,0.30344 0.0429,0.10348 0.0806,0.20881 0.1132,0.31598 0.0325,0.10718 0.0596,0.21571 0.0814,0.32559 0.0219,0.10988 0.0384,0.22059 0.0494,0.33211 0.011,0.11141 0.0164,0.22314 0.0164,0.3352 z m -58.63589,4.39769 c 0,0.12802 -0.006,0.25571 -0.0189,0.38308 -0.0125,0.12748 -0.0312,0.25398 -0.0562,0.3795 -0.025,0.12563 -0.056,0.24969 -0.0932,0.37218 -0.0372,0.12248 -0.0804,0.24285 -0.12933,0.3611 -0.049,0.11836 -0.10364,0.234 -0.16402,0.34693 -0.0604,0.11282 -0.12612,0.22249 -0.19725,0.32901 -0.0711,0.10641 -0.14729,0.20908 -0.22852,0.308 -0.0812,0.099 -0.16706,0.19382 -0.25751,0.28439 -0.0906,0.0905 -0.18536,0.17629 -0.28439,0.25751 -0.0989,0.0812 -0.20159,0.1574 -0.308,0.22852 -0.10652,0.0711 -0.2162,0.13687 -0.32901,0.19725 -0.11293,0.0604 -0.22857,0.11505 -0.34693,0.16402 -0.11825,0.049 -0.23862,0.0921 -0.3611,0.12933 -0.12248,0.0371 -0.24654,0.0682 -0.37218,0.0932 -0.12552,0.025 -0.25202,0.0437 -0.3795,0.0562 -0.12737,0.0126 -0.25506,0.0189 -0.38308,0.0189 -0.12802,0 -0.25571,-0.006 -0.38308,-0.0189 -0.12748,-0.0125 -0.25398,-0.0312 -0.3795,-0.0562 -0.12563,-0.025 -0.24969,-0.056 -0.37218,-0.0932 -0.12248,-0.0372 -0.24285,-0.0804 -0.3611,-0.12933 -0.11836,-0.049 -0.23394,-0.10364 -0.34677,-0.16402 -0.11293,-0.0604 -0.22266,-0.12612 -0.32917,-0.19725 -0.10641,-0.0711 -0.20908,-0.14729 -0.308,-0.22852 -0.099,-0.0812 -0.19382,-0.16706 -0.28439,-0.25751 -0.0905,-0.0906 -0.17629,-0.18536 -0.25751,-0.28439 -0.0812,-0.0989 -0.1574,-0.20159 -0.22852,-0.308 -0.0711,-0.10652 -0.13687,-0.2162 -0.19725,-0.32901 -0.0604,-0.11293 -0.11505,-0.22857 -0.16402,-0.34693 -0.049,-0.11825 -0.0921,-0.23862 -0.12933,-0.3611 -0.0371,-0.12248 -0.0682,-0.24654 -0.0932,-0.37218 -0.025,-0.12552 -0.0437,-0.25202 -0.0562,-0.3795 -0.0126,-0.12737 -0.0189,-0.25506 -0.0189,-0.38308 0,-0.12802 0.006,-0.25571 0.0189,-0.38308 0.0125,-0.12748 0.0312,-0.25398 0.0562,-0.3795 0.025,-0.12563 0.056,-0.24969 0.0932,-0.37218 0.0372,-0.12248 0.0803,-0.24285 0.12933,-0.3611 0.049,-0.11836 0.10364,-0.234 0.16402,-0.34693 0.0604,-0.11282 0.12612,-0.22249 0.19725,-0.32901 0.0711,-0.10641 0.14729,-0.20908 0.22852,-0.308 0.0812,-0.099 0.16706,-0.19382 0.25751,-0.28439 0.0906,-0.0905 0.18536,-0.17629 0.28439,-0.25751 0.0989,-0.0812 0.20159,-0.1574 0.308,-0.22852 0.10652,-0.0711 0.21625,-0.13687 0.32917,-0.19725 0.11282,-0.0604 0.22841,-0.11505 0.34677,-0.16402 0.11825,-0.049 0.23862,-0.0921 0.3611,-0.12933 0.12248,-0.0371 0.24654,-0.0682 0.37218,-0.0932 0.12552,-0.025 0.25202,-0.0437 0.3795,-0.0562 0.12737,-0.0126 0.25506,-0.0189 0.38308,-0.0189 0.12802,0 0.25571,0.006 0.38308,0.0189 0.12748,0.0125 0.25398,0.0312 0.3795,0.0562 0.12563,0.025 0.24969,0.056 0.37218,0.0932 0.12248,0.0372 0.24285,0.0804 0.3611,0.12933 0.11836,0.049 0.234,0.10364 0.34693,0.16402 0.11282,0.0604 0.22249,0.12612 0.32901,0.19725 0.10641,0.0711 0.20908,0.14729 0.308,0.22852 0.099,0.0812 0.19382,0.16706 0.28439,0.25751 0.0904,0.0906 0.17629,0.18536 0.25751,0.28439 0.0812,0.0989 0.1574,0.20159 0.22852,0.308 0.0711,0.10652 0.13687,0.2162 0.19725,0.32901 0.0604,0.11293 0.11505,0.22857 0.16402,0.34693 0.049,0.11825 0.0921,0.23862 0.12933,0.3611 0.0371,0.12248 0.0682,0.24654 0.0932,0.37218 0.025,0.12552 0.0437,0.25202 0.0562,0.3795 0.0126,0.12737 0.0189,0.25506 0.0189,0.38308 z m 47.56022,0 c 0,0.12802 -0.006,0.25571 -0.0189,0.38308 -0.0125,0.12748 -0.0312,0.25398 -0.0562,0.3795 -0.025,0.12563 -0.056,0.24969 -0.0932,0.37218 -0.0372,0.12248 -0.0803,0.24285 -0.12933,0.3611 -0.049,0.11836 -0.10364,0.234 -0.16402,0.34693 -0.0604,0.11282 -0.12612,0.22249 -0.19725,0.32901 -0.0711,0.10641 -0.14729,0.20908 -0.22852,0.308 -0.0812,0.099 -0.16706,0.19382 -0.25751,0.28439 -0.0906,0.0905 -0.18536,0.17629 -0.28439,0.25751 -0.0989,0.0812 -0.20159,0.1574 -0.308,0.22852 -0.10652,0.0711 -0.2162,0.13687 -0.32901,0.19725 -0.11293,0.0604 -0.22857,0.11505 -0.34693,0.16402 -0.11825,0.049 -0.23862,0.0921 -0.3611,0.12933 -0.12248,0.0371 -0.24654,0.0682 -0.37218,0.0932 -0.12552,0.025 -0.25202,0.0437 -0.3795,0.0562 -0.12737,0.0126 -0.25506,0.0189 -0.38308,0.0189 -0.12802,0 -0.25571,-0.006 -0.38308,-0.0189 -0.12748,-0.0125 -0.25398,-0.0312 -0.3795,-0.0562 -0.12563,-0.025 -0.24969,-0.056 -0.37218,-0.0932 -0.12248,-0.0372 -0.24285,-0.0804 -0.3611,-0.12933 -0.11836,-0.049 -0.234,-0.10364 -0.34693,-0.16402 -0.11282,-0.0604 -0.22249,-0.12612 -0.32901,-0.19725 -0.10641,-0.0711 -0.20908,-0.14729 -0.308,-0.22852 -0.099,-0.0812 -0.19382,-0.16706 -0.28439,-0.25751 -0.0905,-0.0906 -0.17629,-0.18536 -0.25751,-0.28439 -0.0812,-0.0989 -0.1574,-0.20159 -0.22852,-0.308 -0.0711,-0.10652 -0.13687,-0.2162 -0.19725,-0.32901 -0.0604,-0.11293 -0.11505,-0.22857 -0.16402,-0.34693 -0.049,-0.11825 -0.0921,-0.23862 -0.12933,-0.3611 -0.0371,-0.12248 -0.0682,-0.24654 -0.0932,-0.37218 -0.025,-0.12552 -0.0437,-0.25202 -0.0562,-0.3795 -0.0126,-0.12737 -0.0189,-0.25506 -0.0189,-0.38308 0,-0.12802 0.006,-0.25571 0.0189,-0.38308 0.0125,-0.12748 0.0312,-0.25398 0.0562,-0.3795 0.025,-0.12563 0.056,-0.24969 0.0932,-0.37218 0.0372,-0.12248 0.0804,-0.24285 0.12933,-0.3611 0.049,-0.11836 0.10364,-0.234 0.16402,-0.34693 0.0604,-0.11282 0.12612,-0.22249 0.19725,-0.32901 0.0711,-0.10641 0.14729,-0.20908 0.22852,-0.308 0.0812,-0.099 0.16706,-0.19382 0.25751,-0.28439 0.0906,-0.0905 0.18536,-0.17629 0.28439,-0.25751 0.0989,-0.0812 0.20159,-0.1574 0.308,-0.22852 0.10652,-0.0711 0.2162,-0.13687 0.32901,-0.19725 0.11293,-0.0604 0.22857,-0.11505 0.34693,-0.16402 0.11825,-0.049 0.23862,-0.0921 0.3611,-0.12933 0.12248,-0.0371 0.24654,-0.0682 0.37218,-0.0932 0.12552,-0.025 0.25202,-0.0437 0.3795,-0.0562 0.12737,-0.0126 0.25506,-0.0189 0.38308,-0.0189 0.12802,0 0.25571,0.006 0.38308,0.0189 0.12748,0.0125 0.25398,0.0312 0.3795,0.0562 0.12563,0.025 0.24969,0.056 0.37218,0.0932 0.12248,0.0372 0.24285,0.0804 0.3611,0.12933 0.11836,0.049 0.234,0.10364 0.34693,0.16402 0.11282,0.0604 0.22249,0.12612 0.32901,0.19725 0.10641,0.0711 0.20908,0.14729 0.308,0.22852 0.099,0.0812 0.19382,0.16706 0.28439,0.25751 0.0905,0.0906 0.17629,0.18536 0.25751,0.28439 0.0812,0.0989 0.1574,0.20159 0.22852,0.308 0.0711,0.10652 0.13687,0.2162 0.19725,0.32901 0.0604,0.11293 0.11505,0.22857 0.16402,0.34693 0.049,0.11825 0.0921,0.23862 0.12933,0.3611 0.0371,0.12248 0.0682,0.24654 0.0932,0.37218 0.025,0.12552 0.0437,0.25202 0.0562,0.3795 0.0126,0.12737 0.0189,0.25506 0.0189,0.38308 z m -56.84423,8.30675 c 0,0.1707 -0.008,0.34101 -0.0251,0.51095 -0.0167,0.16983 -0.0418,0.33846 -0.0751,0.5059 -0.0333,0.16744 -0.0748,0.33281 -0.12428,0.49613 -0.0495,0.16331 -0.10695,0.32385 -0.17233,0.48163 -0.0653,0.15767 -0.13818,0.31181 -0.21875,0.46241 -0.0805,0.1505 -0.16809,0.29671 -0.26289,0.43863 -0.0948,0.14192 -0.19637,0.2789 -0.30474,0.41094 -0.10826,0.13193 -0.22276,0.25821 -0.34351,0.37885 -0.12064,0.12075 -0.24693,0.23525 -0.37885,0.34351 -0.13204,0.10837 -0.26902,0.20995 -0.41094,0.30474 -0.14192,0.0948 -0.28813,0.18242 -0.43863,0.26289 -0.15061,0.0806 -0.30474,0.15348 -0.46241,0.21875 -0.15778,0.0654 -0.31832,0.12281 -0.48163,0.17233 -0.16331,0.0495 -0.32869,0.0909 -0.49613,0.12428 -0.16744,0.0333 -0.33607,0.0584 -0.5059,0.0751 -0.16994,0.0167 -0.34025,0.0251 -0.51095,0.0251 -0.1707,0 -0.34101,-0.008 -0.51095,-0.0251 -0.16983,-0.0167 -0.33846,-0.0418 -0.5059,-0.0751 -0.16744,-0.0333 -0.33281,-0.0748 -0.49613,-0.12428 -0.16331,-0.0495 -0.32385,-0.10695 -0.48163,-0.17233 -0.15767,-0.0653 -0.31181,-0.13818 -0.46241,-0.21875 -0.1505,-0.0805 -0.29671,-0.16809 -0.43863,-0.26289 -0.14192,-0.0948 -0.2789,-0.19637 -0.41094,-0.30474 -0.13193,-0.10826 -0.25821,-0.22276 -0.37885,-0.34351 -0.12075,-0.12064 -0.23525,-0.24693 -0.34351,-0.37885 -0.10837,-0.13204 -0.20995,-0.26902 -0.30474,-0.41094 -0.0948,-0.14192 -0.18242,-0.28813 -0.26289,-0.43863 -0.0806,-0.15061 -0.15348,-0.30474 -0.21875,-0.46241 -0.0654,-0.15778 -0.12281,-0.31832 -0.17233,-0.48163 -0.0495,-0.16331 -0.0909,-0.32869 -0.12428,-0.49613 -0.0333,-0.16744 -0.0584,-0.33607 -0.0751,-0.5059 -0.0167,-0.16994 -0.0251,-0.34025 -0.0251,-0.51095 0,-0.1707 0.008,-0.34101 0.0251,-0.51095 0.0167,-0.16983 0.0418,-0.33846 0.0751,-0.5059 0.0333,-0.16744 0.0748,-0.33281 0.12428,-0.49613 0.0495,-0.16342 0.10695,-0.32396 0.17233,-0.48163 0.0653,-0.15767 0.13818,-0.31181 0.21875,-0.46241 0.0805,-0.1505 0.16809,-0.29671 0.26289,-0.43863 0.0948,-0.14192 0.19637,-0.2789 0.30474,-0.41094 0.10826,-0.13193 0.22276,-0.25821 0.34351,-0.37885 0.12064,-0.12075 0.24693,-0.23525 0.37885,-0.34351 0.13204,-0.10837 0.26902,-0.20995 0.41094,-0.30474 0.14192,-0.0948 0.28813,-0.18242 0.43863,-0.26289 0.15061,-0.0806 0.30474,-0.15348 0.46241,-0.21875 0.15778,-0.0654 0.31832,-0.12281 0.48163,-0.17233 0.16331,-0.0495 0.32869,-0.0909 0.49613,-0.12428 0.16744,-0.0333 0.33607,-0.0584 0.5059,-0.0751 0.16994,-0.0167 0.34025,-0.0251 0.51095,-0.0251 0.1707,0 0.34101,0.008 0.51095,0.0251 0.16983,0.0167 0.33846,0.0418 0.5059,0.0751 0.16744,0.0333 0.33281,0.0748 0.49613,0.12428 0.16331,0.0495 0.32385,0.10695 0.48163,0.17233 0.15767,0.0653 0.31181,0.13818 0.46241,0.21875 0.1505,0.0805 0.29671,0.16809 0.43863,0.26289 0.14192,0.0948 0.2789,0.19637 0.41094,0.30474 0.13193,0.10826 0.25821,0.22276 0.37885,0.34351 0.12075,0.12064 0.23525,0.24693 0.34351,0.37885 0.10837,0.13204 0.20995,0.26902 0.30474,0.41094 0.0948,0.14192 0.18242,0.28813 0.26289,0.43863 0.0806,0.15061 0.15348,0.30474 0.21875,0.46241 0.0654,0.15767 0.12281,0.31821 0.17233,0.48163 0.0495,0.16331 0.0909,0.32869 0.12428,0.49613 0.0333,0.16744 0.0584,0.33607 0.0751,0.5059 0.0167,0.16994 0.0251,0.34025 0.0251,0.51095 z m 68.73428,0 c 0,0.1707 -0.008,0.34101 -0.0251,0.51095 -0.0167,0.16983 -0.0417,0.33846 -0.0751,0.5059 -0.0333,0.16744 -0.0748,0.33281 -0.12428,0.49613 -0.0495,0.16331 -0.10695,0.32385 -0.17233,0.48163 -0.0653,0.15767 -0.13818,0.31181 -0.21875,0.46241 -0.0805,0.1505 -0.16809,0.29671 -0.26289,0.43863 -0.0948,0.14192 -0.19637,0.2789 -0.30474,0.41094 -0.10826,0.13193 -0.22276,0.25821 -0.34351,0.37885 -0.12064,0.12075 -0.24693,0.23525 -0.37885,0.34351 -0.13204,0.10837 -0.26902,0.20995 -0.41094,0.30474 -0.14192,0.0948 -0.28813,0.18242 -0.43863,0.26289 -0.15061,0.0806 -0.30474,0.15348 -0.46241,0.21875 -0.15778,0.0654 -0.31832,0.12281 -0.48163,0.17233 -0.16331,0.0495 -0.32869,0.0909 -0.49613,0.12428 -0.16744,0.0333 -0.33607,0.0584 -0.5059,0.0751 -0.16994,0.0167 -0.34025,0.0251 -0.51095,0.0251 -0.1707,0 -0.34101,-0.008 -0.51095,-0.0251 -0.16983,-0.0167 -0.33846,-0.0418 -0.5059,-0.0751 -0.16744,-0.0333 -0.33281,-0.0748 -0.49613,-0.12428 -0.16331,-0.0495 -0.32385,-0.10695 -0.48163,-0.17233 -0.15767,-0.0653 -0.31181,-0.13818 -0.46241,-0.21875 -0.1505,-0.0805 -0.29671,-0.16809 -0.43863,-0.26289 -0.14192,-0.0948 -0.2789,-0.19637 -0.41094,-0.30474 -0.13193,-0.10826 -0.25821,-0.22276 -0.37885,-0.34351 -0.12075,-0.12064 -0.23525,-0.24693 -0.34351,-0.37885 -0.10837,-0.13204 -0.20995,-0.26902 -0.30474,-0.41094 -0.0948,-0.14192 -0.18242,-0.28813 -0.26289,-0.43863 -0.0806,-0.15061 -0.15348,-0.30474 -0.21875,-0.46241 -0.0654,-0.15778 -0.12281,-0.31832 -0.17233,-0.48163 -0.0495,-0.16331 -0.0909,-0.32869 -0.12428,-0.49613 -0.0333,-0.16744 -0.0584,-0.33607 -0.0751,-0.5059 -0.0167,-0.16994 -0.0251,-0.34025 -0.0251,-0.51095 0,-0.1707 0.008,-0.34101 0.0251,-0.51095 0.0167,-0.16983 0.0417,-0.33846 0.0751,-0.5059 0.0333,-0.16744 0.0748,-0.33281 0.12428,-0.49613 0.0495,-0.16342 0.10695,-0.32396 0.17233,-0.48163 0.0653,-0.15767 0.13818,-0.31181 0.21875,-0.46241 0.0805,-0.1505 0.16809,-0.29671 0.26289,-0.43863 0.0948,-0.14192 0.19637,-0.2789 0.30474,-0.41094 0.10826,-0.13193 0.22276,-0.25821 0.34351,-0.37885 0.12064,-0.12075 0.24693,-0.23525 0.37885,-0.34351 0.13204,-0.10837 0.26902,-0.20995 0.41094,-0.30474 0.14192,-0.0948 0.28813,-0.18242 0.43863,-0.26289 0.15061,-0.0806 0.30474,-0.15348 0.46241,-0.21875 0.15778,-0.0654 0.31832,-0.12281 0.48163,-0.17233 0.16331,-0.0495 0.32869,-0.0909 0.49613,-0.12428 0.16744,-0.0333 0.33607,-0.0584 0.5059,-0.0751 0.16994,-0.0167 0.34025,-0.0251 0.51095,-0.0251 0.1707,0 0.34101,0.008 0.51095,0.0251 0.16983,0.0167 0.33846,0.0418 0.5059,0.0751 0.16744,0.0333 0.33281,0.0748 0.49613,0.12428 0.16331,0.0495 0.32385,0.10695 0.48163,0.17233 0.15767,0.0653 0.31181,0.13818 0.46241,0.21875 0.1505,0.0805 0.29671,0.16809 0.43863,0.26289 0.14192,0.0948 0.2789,0.19637 0.41094,0.30474 0.13193,0.10826 0.25821,0.22276 0.37885,0.34351 0.12075,0.12064 0.23525,0.24693 0.34351,0.37885 0.10837,0.13204 0.20995,0.26902 0.30474,0.41094 0.0948,0.14192 0.18242,0.28813 0.26289,0.43863 0.0806,0.15061 0.15348,0.30474 0.21875,0.46241 0.0654,0.15767 0.12281,0.31821 0.17233,0.48163 0.0495,0.16331 0.0909,0.32869 0.12428,0.49613 0.0333,0.16744 0.0584,0.33607 0.0751,0.5059 0.0167,0.16994 0.0251,0.34025 0.0251,0.51095 z m -51.14351,-1.30302 c 0,0.11206 -0.005,0.22379 -0.0164,0.3352 -0.011,0.11152 -0.0274,0.22222 -0.0494,0.33211 -0.0218,0.10988 -0.049,0.21842 -0.0814,0.32559 -0.0326,0.10718 -0.0703,0.2125 -0.1132,0.31598 -0.0428,0.10348 -0.0906,0.20463 -0.14349,0.30344 -0.0528,0.0988 -0.11027,0.1948 -0.17249,0.28797 -0.0622,0.0932 -0.12889,0.18302 -0.20001,0.26956 -0.071,0.0867 -0.14615,0.16956 -0.22543,0.24871 -0.0792,0.0793 -0.16206,0.15441 -0.24871,0.22543 -0.0865,0.0711 -0.1764,0.13779 -0.26956,0.20001 -0.0932,0.0622 -0.18916,0.11972 -0.28797,0.17249 -0.0988,0.0529 -0.19996,0.10071 -0.30344,0.14349 -0.10348,0.0429 -0.20881,0.0806 -0.31598,0.1132 -0.10718,0.0325 -0.21571,0.0596 -0.32559,0.0814 -0.10988,0.0219 -0.22059,0.0384 -0.33211,0.0494 -0.11141,0.011 -0.22314,0.0164 -0.3352,0.0164 -0.11206,0 -0.22379,-0.005 -0.3352,-0.0164 -0.11152,-0.011 -0.22222,-0.0274 -0.33211,-0.0494 -0.10988,-0.0218 -0.21842,-0.049 -0.32559,-0.0814 -0.10718,-0.0326 -0.2125,-0.0703 -0.31598,-0.1132 -0.10348,-0.0428 -0.20463,-0.0906 -0.30344,-0.14349 -0.0988,-0.0528 -0.1948,-0.11027 -0.28797,-0.17249 -0.0932,-0.0622 -0.18302,-0.12889 -0.26956,-0.20001 -0.0866,-0.071 -0.16956,-0.14615 -0.24871,-0.22543 -0.0793,-0.0792 -0.15441,-0.16206 -0.22543,-0.24871 -0.0711,-0.0865 -0.13779,-0.1764 -0.20001,-0.26956 -0.0622,-0.0932 -0.11972,-0.18916 -0.17249,-0.28797 -0.0529,-0.0988 -0.10071,-0.19996 -0.14349,-0.30344 -0.0429,-0.10348 -0.0806,-0.20881 -0.1132,-0.31598 -0.0325,-0.10718 -0.0596,-0.21571 -0.0814,-0.32559 -0.0219,-0.10988 -0.0384,-0.22059 -0.0494,-0.33211 -0.011,-0.11141 -0.0164,-0.22314 -0.0164,-0.3352 0,-0.11206 0.005,-0.22379 0.0164,-0.3352 0.011,-0.11152 0.0274,-0.22222 0.0494,-0.33211 0.0218,-0.10988 0.049,-0.21842 0.0814,-0.32559 0.0326,-0.10718 0.0703,-0.2125 0.1132,-0.31598 0.0428,-0.10348 0.0906,-0.20463 0.14349,-0.30344 0.0528,-0.0988 0.11027,-0.1948 0.17249,-0.28797 0.0622,-0.0932 0.12889,-0.18302 0.20001,-0.26956 0.071,-0.0867 0.14615,-0.16956 0.22543,-0.24871 0.0792,-0.0793 0.16206,-0.15441 0.24871,-0.22543 0.0865,-0.0711 0.1764,-0.13779 0.26956,-0.20001 0.0932,-0.0622 0.18916,-0.11972 0.28797,-0.17249 0.0988,-0.0529 0.19996,-0.10071 0.30344,-0.14349 0.10348,-0.0429 0.20881,-0.0806 0.31598,-0.1132 0.10718,-0.0325 0.21571,-0.0596 0.32559,-0.0814 0.10988,-0.0219 0.22059,-0.0384 0.33211,-0.0494 0.11141,-0.011 0.22314,-0.0164 0.3352,-0.0164 0.11206,0 0.22379,0.005 0.3352,0.0164 0.11152,0.011 0.22222,0.0274 0.33211,0.0494 0.10988,0.0218 0.21842,0.049 0.32559,0.0814 0.10718,0.0326 0.2125,0.0703 0.31598,0.1132 0.10348,0.0428 0.20463,0.0906 0.30344,0.14349 0.0988,0.0528 0.1948,0.11027 0.28797,0.17249 0.0932,0.0622 0.18302,0.12889 0.26956,0.20001 0.0866,0.071 0.16956,0.14615 0.24871,0.22543 0.0793,0.0792 0.15441,0.16206 0.22543,0.24871 0.0711,0.0865 0.13779,0.1764 0.20001,0.26956 0.0622,0.0932 0.11972,0.18916 0.17249,0.28797 0.0529,0.0988 0.10071,0.19996 0.14349,0.30344 0.0429,0.10348 0.0806,0.20881 0.1132,0.31598 0.0325,0.10718 0.0596,0.21571 0.0814,0.32559 0.0219,0.10988 0.0384,0.22059 0.0494,0.33211 0.011,0.11141 0.0164,0.22314 0.0164,0.3352 z m 29.96944,0 c 0,0.11206 -0.005,0.22379 -0.0164,0.3352 -0.011,0.11152 -0.0274,0.22222 -0.0494,0.33211 -0.0218,0.10988 -0.049,0.21842 -0.0814,0.32559 -0.0326,0.10718 -0.0703,0.2125 -0.1132,0.31598 -0.0428,0.10348 -0.0906,0.20463 -0.14349,0.30344 -0.0528,0.0988 -0.11027,0.1948 -0.17249,0.28797 -0.0622,0.0932 -0.12889,0.18302 -0.20001,0.26956 -0.071,0.0867 -0.14615,0.16956 -0.22543,0.24871 -0.0792,0.0793 -0.16206,0.15441 -0.24871,0.22543 -0.0865,0.0711 -0.1764,0.13779 -0.26956,0.20001 -0.0932,0.0622 -0.18916,0.11972 -0.28797,0.17249 -0.0988,0.0529 -0.19996,0.10071 -0.30344,0.14349 -0.10348,0.0429 -0.20881,0.0806 -0.31598,0.1132 -0.10718,0.0325 -0.21571,0.0596 -0.32559,0.0814 -0.10988,0.0219 -0.22059,0.0384 -0.33211,0.0494 -0.11141,0.011 -0.22314,0.0164 -0.3352,0.0164 -0.11206,0 -0.22379,-0.005 -0.3352,-0.0164 -0.11152,-0.011 -0.22222,-0.0274 -0.33211,-0.0494 -0.10988,-0.0218 -0.21842,-0.049 -0.32559,-0.0814 -0.10718,-0.0326 -0.2125,-0.0703 -0.31598,-0.1132 -0.10348,-0.0428 -0.20463,-0.0906 -0.30344,-0.14349 -0.0988,-0.0528 -0.1948,-0.11027 -0.28797,-0.17249 -0.0932,-0.0622 -0.18302,-0.12889 -0.26956,-0.20001 -0.0866,-0.071 -0.16956,-0.14615 -0.24871,-0.22543 -0.0793,-0.0792 -0.15441,-0.16206 -0.22543,-0.24871 -0.0711,-0.0865 -0.13779,-0.1764 -0.20001,-0.26956 -0.0622,-0.0932 -0.11972,-0.18916 -0.17249,-0.28797 -0.0529,-0.0988 -0.10071,-0.19996 -0.14349,-0.30344 -0.0429,-0.10348 -0.0806,-0.20881 -0.1132,-0.31598 -0.0325,-0.10718 -0.0596,-0.21571 -0.0814,-0.32559 -0.0219,-0.10988 -0.0384,-0.22059 -0.0494,-0.33211 -0.011,-0.11141 -0.0164,-0.22314 -0.0164,-0.3352 0,-0.11206 0.005,-0.22379 0.0164,-0.3352 0.011,-0.11152 0.0274,-0.22222 0.0494,-0.33211 0.0218,-0.10988 0.049,-0.21842 0.0814,-0.32559 0.0326,-0.10718 0.0703,-0.2125 0.1132,-0.31598 0.0428,-0.10348 0.0906,-0.20463 0.14349,-0.30344 0.0528,-0.0988 0.11027,-0.1948 0.17249,-0.28797 0.0622,-0.0932 0.12889,-0.18302 0.20001,-0.26956 0.071,-0.0867 0.14615,-0.16956 0.22543,-0.24871 0.0792,-0.0793 0.16206,-0.15441 0.24871,-0.22543 0.0865,-0.0711 0.1764,-0.13779 0.26956,-0.20001 0.0932,-0.0622 0.18916,-0.11972 0.28797,-0.17249 0.0988,-0.0529 0.19996,-0.10071 0.30344,-0.14349 0.10348,-0.0429 0.20881,-0.0806 0.31598,-0.1132 0.10718,-0.0325 0.21571,-0.0596 0.32559,-0.0814 0.10988,-0.0219 0.22059,-0.0384 0.33211,-0.0494 0.11141,-0.011 0.22314,-0.0164 0.3352,-0.0164 0.11206,0 0.22379,0.005 0.3352,0.0164 0.11152,0.011 0.22222,0.0274 0.33211,0.0494 0.10988,0.0218 0.21842,0.049 0.32559,0.0814 0.10718,0.0326 0.2125,0.0703 0.31598,0.1132 0.10348,0.0428 0.20463,0.0906 0.30344,0.14349 0.0988,0.0528 0.1948,0.11027 0.28797,0.17249 0.0932,0.0622 0.18302,0.12889 0.26956,0.20001 0.0866,0.071 0.16956,0.14615 0.24871,0.22543 0.0793,0.0792 0.15441,0.16206 0.22543,0.24871 0.0711,0.0865 0.13779,0.1764 0.20001,0.26956 0.0622,0.0932 0.11972,0.18916 0.17249,0.28797 0.0529,0.0988 0.10071,0.19996 0.14349,0.30344 0.0429,0.10348 0.0806,0.20881 0.1132,0.31598 0.0325,0.10718 0.0596,0.21571 0.0814,0.32559 0.0219,0.10988 0.0384,0.22059 0.0494,0.33211 0.011,0.11141 0.0164,0.22314 0.0164,0.3352 z m -37.29893,10.42416 c 0,0.14941 -0.007,0.29839 -0.022,0.44694 -0.0147,0.14865 -0.0365,0.29627 -0.0656,0.44287 -0.0291,0.14648 -0.0654,0.29117 -0.1088,0.43407 -0.0433,0.1429 -0.0935,0.28335 -0.15067,0.42137 -0.0572,0.13801 -0.12102,0.27287 -0.19138,0.40458 -0.0705,0.13171 -0.14718,0.25968 -0.23014,0.3839 -0.083,0.12422 -0.17183,0.24405 -0.26663,0.35947 -0.0947,0.11542 -0.19486,0.22597 -0.30051,0.33162 -0.10565,0.10565 -0.2162,0.20582 -0.33162,0.30051 -0.11542,0.0948 -0.23525,0.18367 -0.35947,0.26663 -0.12422,0.083 -0.25219,0.15967 -0.3839,0.23014 -0.13171,0.0704 -0.26658,0.13415 -0.40458,0.19138 -0.13801,0.0571 -0.27847,0.10734 -0.42137,0.15067 -0.1429,0.0434 -0.28759,0.0797 -0.43407,0.1088 -0.14659,0.0291 -0.29421,0.051 -0.44287,0.0656 -0.14855,0.0147 -0.29752,0.022 -0.44694,0.022 -0.14941,0 -0.29839,-0.007 -0.44694,-0.022 -0.14865,-0.0147 -0.29627,-0.0365 -0.44287,-0.0656 -0.14648,-0.0291 -0.29117,-0.0654 -0.43407,-0.1088 -0.1429,-0.0433 -0.28335,-0.0935 -0.42137,-0.15067 -0.13801,-0.0572 -0.27287,-0.12102 -0.40458,-0.19138 -0.13171,-0.0705 -0.25968,-0.14718 -0.3839,-0.23014 -0.12422,-0.083 -0.24405,-0.17183 -0.35947,-0.26663 -0.11542,-0.0947 -0.22597,-0.19486 -0.33162,-0.30051 -0.10565,-0.10565 -0.20582,-0.2162 -0.30051,-0.33162 -0.0948,-0.11542 -0.18367,-0.23525 -0.26663,-0.35947 -0.083,-0.12422 -0.15967,-0.25219 -0.23014,-0.3839 -0.0704,-0.13171 -0.13415,-0.26658 -0.19138,-0.40458 -0.0571,-0.13801 -0.10734,-0.27847 -0.15067,-0.42137 -0.0434,-0.1429 -0.0797,-0.28759 -0.1088,-0.43407 -0.0291,-0.14659 -0.051,-0.29421 -0.0656,-0.44287 -0.0147,-0.14855 -0.022,-0.29752 -0.022,-0.44694 0,-0.1493 0.007,-0.29828 0.022,-0.44694 0.0147,-0.14865 0.0365,-0.29627 0.0656,-0.44287 0.0291,-0.14648 0.0654,-0.29117 0.1088,-0.43407 0.0433,-0.1429 0.0935,-0.28335 0.15067,-0.42137 0.0572,-0.13801 0.12102,-0.27287 0.19138,-0.40458 0.0705,-0.13171 0.14718,-0.25968 0.23014,-0.3839 0.083,-0.12422 0.17183,-0.24405 0.26663,-0.35947 0.0947,-0.11542 0.19486,-0.22597 0.30051,-0.33162 0.10565,-0.10565 0.2162,-0.20582 0.33162,-0.30051 0.11542,-0.0948 0.23525,-0.18367 0.35947,-0.26663 0.12422,-0.083 0.25219,-0.15967 0.3839,-0.23014 0.13171,-0.0704 0.26658,-0.13415 0.40458,-0.19138 0.13801,-0.0571 0.27847,-0.10734 0.42137,-0.15067 0.1429,-0.0434 0.28759,-0.0797 0.43407,-0.1088 0.14659,-0.0291 0.29421,-0.051 0.44287,-0.0656 0.14855,-0.0147 0.29752,-0.022 0.44694,-0.022 0.14941,0 0.29839,0.007 0.44694,0.022 0.14865,0.0147 0.29627,0.0365 0.44287,0.0656 0.14648,0.0291 0.29117,0.0654 0.43407,0.1088 0.1429,0.0433 0.28335,0.0935 0.42137,0.15067 0.13801,0.0572 0.27287,0.12102 0.40458,0.19138 0.13171,0.0705 0.25968,0.14718 0.3839,0.23014 0.12422,0.083 0.24405,0.17183 0.35947,0.26663 0.11542,0.0947 0.22597,0.19486 0.33162,0.30051 0.10565,0.10565 0.20582,0.2162 0.30051,0.33162 0.0948,0.11542 0.18367,0.23525 0.26663,0.35947 0.083,0.12422 0.15967,0.25219 0.23014,0.3839 0.0704,0.13171 0.13415,0.26658 0.19138,0.40458 0.0571,0.13801 0.10734,0.27847 0.15067,0.42137 0.0434,0.1429 0.0797,0.28759 0.1088,0.43407 0.0291,0.14659 0.051,0.29421 0.0656,0.44287 0.0147,0.14865 0.022,0.29763 0.022,0.44694 z m 46.9087,0 c 0,0.14941 -0.007,0.29839 -0.022,0.44694 -0.0147,0.14865 -0.0365,0.29627 -0.0656,0.44287 -0.0291,0.14648 -0.0654,0.29117 -0.1088,0.43407 -0.0433,0.1429 -0.0935,0.28335 -0.15067,0.42137 -0.0572,0.13801 -0.12102,0.27287 -0.19138,0.40458 -0.0705,0.13171 -0.14718,0.25968 -0.23014,0.3839 -0.083,0.12422 -0.17183,0.24405 -0.26663,0.35947 -0.0947,0.11542 -0.19486,0.22597 -0.30051,0.33162 -0.10565,0.10565 -0.2162,0.20582 -0.33162,0.30051 -0.11542,0.0948 -0.23525,0.18367 -0.35947,0.26663 -0.12422,0.083 -0.25219,0.15967 -0.3839,0.23014 -0.13171,0.0704 -0.26658,0.13415 -0.40458,0.19138 -0.13801,0.0571 -0.27847,0.10734 -0.42137,0.15067 -0.1429,0.0434 -0.28759,0.0797 -0.43407,0.1088 -0.14659,0.0291 -0.29421,0.051 -0.44287,0.0656 -0.14855,0.0147 -0.29752,0.022 -0.44694,0.022 -0.1493,0 -0.29828,-0.007 -0.44694,-0.022 -0.14865,-0.0147 -0.29627,-0.0365 -0.44287,-0.0656 -0.14648,-0.0291 -0.29117,-0.0654 -0.43407,-0.1088 -0.1429,-0.0433 -0.28335,-0.0935 -0.42137,-0.15067 -0.13801,-0.0572 -0.27287,-0.12102 -0.40458,-0.19138 -0.13171,-0.0705 -0.25968,-0.14718 -0.3839,-0.23014 -0.12422,-0.083 -0.24405,-0.17183 -0.35947,-0.26663 -0.11542,-0.0947 -0.22597,-0.19486 -0.33162,-0.30051 -0.10565,-0.10565 -0.20582,-0.2162 -0.30051,-0.33162 -0.0948,-0.11542 -0.18367,-0.23525 -0.26663,-0.35947 -0.083,-0.12422 -0.15967,-0.25219 -0.23014,-0.3839 -0.0704,-0.13171 -0.13415,-0.26658 -0.19138,-0.40458 -0.0571,-0.13801 -0.10734,-0.27847 -0.15067,-0.42137 -0.0434,-0.1429 -0.0797,-0.28759 -0.1088,-0.43407 -0.0291,-0.14659 -0.051,-0.29421 -0.0656,-0.44287 -0.0147,-0.14855 -0.022,-0.29752 -0.022,-0.44694 0,-0.1493 0.007,-0.29828 0.022,-0.44694 0.0147,-0.14865 0.0365,-0.29627 0.0656,-0.44287 0.0291,-0.14648 0.0654,-0.29117 0.1088,-0.43407 0.0433,-0.1429 0.0935,-0.28335 0.15067,-0.42137 0.0572,-0.13801 0.12102,-0.27287 0.19138,-0.40458 0.0705,-0.13171 0.14718,-0.25968 0.23014,-0.3839 0.083,-0.12422 0.17183,-0.24405 0.26663,-0.35947 0.0947,-0.11542 0.19486,-0.22597 0.30051,-0.33162 0.10565,-0.10565 0.2162,-0.20582 0.33162,-0.30051 0.11542,-0.0948 0.23525,-0.18367 0.35947,-0.26663 0.12422,-0.083 0.25219,-0.15967 0.3839,-0.23014 0.13171,-0.0704 0.26658,-0.13415 0.40458,-0.19138 0.13801,-0.0571 0.27847,-0.10734 0.42137,-0.15067 0.1429,-0.0434 0.28759,-0.0797 0.43407,-0.1088 0.14659,-0.0291 0.29421,-0.051 0.44287,-0.0656 0.14865,-0.0147 0.29763,-0.022 0.44694,-0.022 0.14941,0 0.29839,0.007 0.44694,0.022 0.14865,0.0147 0.29627,0.0365 0.44287,0.0656 0.14648,0.0291 0.29117,0.0654 0.43407,0.1088 0.1429,0.0433 0.28335,0.0935 0.42137,0.15067 0.13801,0.0572 0.27287,0.12102 0.40458,0.19138 0.13171,0.0705 0.25968,0.14718 0.3839,0.23014 0.12422,0.083 0.24405,0.17183 0.35947,0.26663 0.11542,0.0947 0.22597,0.19486 0.33162,0.30051 0.10565,0.10565 0.20582,0.2162 0.30051,0.33162 0.0948,0.11542 0.18367,0.23525 0.26663,0.35947 0.083,0.12422 0.15967,0.25219 0.23014,0.3839 0.0704,0.13171 0.13415,0.26658 0.19138,0.40458 0.0571,0.13801 0.10734,0.27847 0.15067,0.42137 0.0434,0.1429 0.0797,0.28759 0.1088,0.43407 0.0291,0.14659 0.051,0.29421 0.0656,0.44287 0.0147,0.14865 0.022,0.29763 0.022,0.44694 z"
             data-paper-data="{&quot;isPathIcon&quot;:true}"
             id="path14"
             style="fill:#ffffff;fill-opacity:1" /></g></g></g></g></svg>
